<?xml version="1.0" standalone="no"?>
<!DOCTYPE svg PUBLIC "-//W3C//DTD SVG 20010904//EN"
 "http://www.w3.org/TR/2001/REC-SVG-20010904/DTD/svg10.dtd">
<svg version="1.0" xmlns="http://www.w3.org/2000/svg"
 width="627.000000pt" height="627.000000pt" viewBox="0 0 627.000000 627.000000"
 preserveAspectRatio="xMidYMid meet">
<metadata>
Created by potrace 1.14, written by Peter Selinger 2001-2017
</metadata>
<g transform="translate(0.000000,627.000000) scale(0.100000,-0.100000)"
fill="#000000" stroke="none">
<path d="M50 3145 l0 -675 1870 0 1870 0 0 675 0 675 -1870 0 -1870 0 0 -675z
m760 88 c118 -196 220 -363 226 -371 8 -12 10 81 6 356 l-5 372 82 0 81 0 0
-480 0 -480 -107 0 -108 0 -229 380 c-126 209 -230 380 -230 380 -1 0 0 -171
2 -380 l4 -380 -76 0 -76 0 0 480 0 480 108 0 107 -1 215 -356z m1690 207 l0
-80 105 0 106 0 -3 -62 -3 -63 -102 -3 -103 -3 0 -209 c0 -206 0 -209 24 -237
20 -23 32 -28 73 -28 26 0 63 3 81 7 l32 8 0 -64 0 -64 -44 -11 c-25 -6 -75
-11 -113 -11 -119 1 -191 52 -212 150 -6 28 -11 143 -11 255 l0 204 -47 3
c-47 3 -48 4 -51 38 -3 33 0 37 53 65 53 29 56 32 83 107 l27 78 53 0 52 0 0
-80z m-595 -90 c126 -48 205 -183 205 -350 0 -238 -129 -380 -345 -380 -143 0
-254 68 -311 193 -27 58 -29 70 -29 187 0 117 2 129 29 188 48 103 139 168
256 181 60 7 150 -2 195 -19z m1448 -18 c95 -51 147 -158 147 -300 l0 -72
-240 0 -240 0 0 -27 c1 -38 24 -100 47 -125 41 -46 90 -61 187 -56 57 3 113
13 149 26 l57 20 0 -67 0 -68 -57 -19 c-44 -15 -87 -19 -183 -19 -114 0 -130
2 -180 26 -71 34 -126 89 -159 158 -24 51 -26 67 -26 186 0 121 2 134 28 190
34 73 77 119 140 151 94 48 237 47 330 -4z"/>
<path d="M1695 3226 c-76 -33 -111 -123 -103 -260 6 -86 27 -144 66 -179 54
-49 180 -41 227 14 72 86 74 304 3 385 -45 51 -129 68 -193 40z"/>
<path d="M3120 3239 c-49 -20 -81 -63 -93 -126 l-6 -33 160 0 161 0 -7 38
c-10 54 -43 102 -81 118 -38 16 -98 17 -134 3z"/>
<path d="M5540 2895 l0 -325 60 0 60 0 0 73 c0 64 3 76 23 95 l24 22 68 -95
69 -95 69 0 69 0 -24 33 c-14 17 -58 76 -98 130 l-73 98 39 42 c21 23 63 68
94 100 l54 57 -71 0 -71 0 -86 -95 -86 -95 0 190 0 190 -60 0 -60 0 0 -325z"/>
<path d="M3948 3174 c-5 -4 -8 -142 -8 -306 l0 -298 155 0 c169 0 206 8 258
58 57 55 60 167 6 222 -17 16 -37 30 -45 30 -22 0 -17 16 9 27 50 23 74 132
42 192 -8 17 -34 39 -62 52 -42 21 -65 24 -198 27 -82 2 -153 0 -157 -4z m273
-105 c29 -15 40 -52 28 -88 -12 -35 -53 -51 -131 -51 l-48 0 0 75 0 75 66 0
c36 0 74 -5 85 -11z m-2 -240 c55 -19 69 -87 29 -134 -20 -22 -34 -26 -100
-32 l-78 -6 0 92 0 91 59 0 c32 0 72 -5 90 -11z"/>
<path d="M4595 3022 c-48 -23 -79 -55 -99 -102 -53 -128 -10 -287 90 -335 50
-24 141 -31 190 -15 99 32 148 107 148 229 0 96 -30 162 -93 206 -37 26 -53
30 -119 33 -59 2 -86 -2 -117 -16z m149 -83 c36 -17 56 -67 56 -139 0 -122
-64 -180 -149 -135 -36 18 -51 60 -51 137 0 120 59 175 144 137z"/>
<path d="M5115 3022 c-48 -23 -79 -55 -99 -102 -53 -128 -10 -287 90 -335 50
-24 141 -31 190 -15 99 32 148 107 148 229 0 96 -30 162 -93 206 -37 26 -53
30 -119 33 -59 2 -86 -2 -117 -16z m149 -83 c36 -17 56 -67 56 -139 0 -122
-64 -180 -149 -135 -36 18 -51 60 -51 137 0 120 59 175 144 137z"/>
<path d="M6049 2681 c-64 -65 -20 -171 71 -171 33 0 48 6 71 29 64 65 20 171
-71 171 -33 0 -48 -6 -71 -29z"/>
</g>
</svg>
